<svg width="44" height="59" viewBox="0 0 44 59" fill="none" xmlns="http://www.w3.org/2000/svg">
<path d="M22.9315 24.0578C22.9315 24.0578 38.4315 4.05777 37.9315 2.55777C37.4315 1.05777 35.4315 0.103148 34.4315 1.10314L20.4315 20.5578C20.4315 20.5578 19.9315 21.5578 18.9315 20.5578C17.9315 19.5577 7.34637 4.10316 5.34637 1.60315C3.34637 -0.896857 -0.153631 1.60315 2.34637 4.60315C4.84637 7.60316 38.3464 56.6032 39.8464 57.6032C41.3464 58.6032 43.3464 57.1032 43.3464 55.6032C43.3464 54.1031 32.4315 39.5578 32.4315 39.5578L28.9315 34.5578C28.9315 34.5578 22.9315 27.0578 22.9315 26.0578L22.9315 24.0578Z" stroke="white"/>
</svg>
