<svg width="149" height="574" viewBox="0 0 149 574" fill="none" xmlns="http://www.w3.org/2000/svg">
<path d="M108 12L108.137 11.0094L108.069 11H108V12ZM76.938 410L77.3957 410.889L77.3957 410.889L76.938 410ZM75.938 573C75.938 573.552 76.3857 574 76.938 574C77.4903 574 77.938 573.552 77.938 573L75.938 573ZM123.5 1.5C123.5 0.947715 123.052 0.5 122.5 0.5C121.948 0.5 121.5 0.947715 121.5 1.5H123.5ZM76.2652 572.322C75.8906 572.728 75.9159 573.36 76.3217 573.735C76.7275 574.109 77.3602 574.084 77.7348 573.678L76.2652 572.322ZM95.7348 554.178C96.1094 553.772 96.0841 553.14 95.6783 552.765C95.2725 552.391 94.6398 552.416 94.2652 552.822L95.7348 554.178ZM77.3543 85.0908C56.2647 75.4353 38.0902 79.1002 24.6696 90.8572C11.3143 102.557 2.77221 122.17 0.567912 144.276C-3.8431 188.512 17.0827 243.244 76.5817 265.934L77.2943 264.066C18.7934 241.756 -1.78091 187.988 2.55804 144.474C4.72873 122.705 13.1241 103.63 25.9875 92.3616C38.7857 81.1498 56.1113 77.5647 76.5217 86.9092L77.3543 85.0908ZM76.5217 86.9092C86.9242 91.6718 94.5826 94.1329 100.089 94.7247C105.597 95.3167 109.239 94.0521 111.12 90.9925C112.918 88.0684 112.865 83.8324 111.962 79.0978C111.048 74.3058 109.203 68.7251 107.097 62.9094C104.976 57.0561 102.605 50.9999 100.567 45.1068C98.5335 39.2259 96.8739 33.6208 96.1915 28.767C95.5047 23.8812 95.8387 19.9575 97.5603 17.2789C99.231 14.6795 102.385 13 108 13V11C101.99 11 98.0483 12.8205 95.8778 16.1976C93.7581 19.4956 93.5052 24.025 94.211 29.0454C94.9213 34.0979 96.6339 39.8522 98.6769 45.7604C100.716 51.6563 103.126 57.8188 105.216 63.5906C107.321 69.3998 109.116 74.8504 109.998 79.4725C110.89 84.152 110.788 87.7128 109.416 89.945C108.127 92.0417 105.48 93.2926 100.302 92.7362C95.1236 92.1796 87.7019 89.8282 77.3543 85.0908L76.5217 86.9092ZM76.5817 265.934C106.006 277.155 124.826 289.577 135.515 302.36C146.166 315.099 148.763 328.216 145.715 341.018C142.653 353.88 133.865 366.53 121.533 378.179C109.211 389.818 93.419 400.392 76.4804 409.111L77.3957 410.889C94.457 402.107 110.415 391.432 122.906 379.633C135.386 367.845 144.473 354.87 147.661 341.482C150.863 328.034 148.085 314.275 137.049 301.077C126.05 287.923 106.87 275.345 77.2943 264.066L76.5817 265.934ZM76.4804 409.111C59.3249 417.941 50.5765 428.063 47.2891 439.553C44.0173 450.988 46.2209 463.57 50.4838 477.174C52.6187 483.987 55.2851 491.099 58.0727 498.488C60.8634 505.885 63.7777 513.564 66.4264 521.549C71.7229 537.517 75.938 554.652 75.938 573L77.938 573C77.938 554.348 73.6531 536.983 68.3246 520.92C65.6608 512.889 62.7313 505.17 59.9439 497.782C57.1534 490.385 54.5073 483.326 52.3923 476.576C48.1552 463.055 46.1087 450.949 49.2119 440.103C52.2995 429.312 60.5512 419.559 77.3957 410.889L76.4804 409.111ZM108 12C107.863 12.9906 107.864 12.9907 107.864 12.9907C107.865 12.9908 107.865 12.9909 107.866 12.9909C107.867 12.9911 107.868 12.9912 107.869 12.9914C107.872 12.9918 107.876 12.9923 107.881 12.9929C107.89 12.9941 107.902 12.9957 107.919 12.9977C107.951 13.0017 107.996 13.0071 108.054 13.0135C108.17 13.0262 108.337 13.0426 108.547 13.0586C108.966 13.0906 109.56 13.1212 110.271 13.1172C111.687 13.109 113.599 12.9633 115.531 12.3971C117.463 11.8309 119.467 10.828 120.99 9.06856C122.527 7.29303 123.5 4.83243 123.5 1.5H121.5C121.5 4.41757 120.66 6.39446 119.478 7.75956C118.283 9.14079 116.662 9.98158 114.969 10.4779C113.276 10.9741 111.563 11.1097 110.26 11.1172C109.612 11.1209 109.073 11.0929 108.699 11.0644C108.513 11.0502 108.368 11.0358 108.271 11.0253C108.223 11.0201 108.187 11.0158 108.165 11.0129C108.153 11.0115 108.145 11.0105 108.14 11.0099C108.138 11.0096 108.137 11.0094 108.136 11.0093C108.136 11.0092 108.136 11.0092 108.136 11.0092C108.136 11.0092 108.136 11.0093 108.136 11.0093C108.136 11.0093 108.137 11.0094 108 12ZM77.7348 573.678L95.7348 554.178L94.2652 552.822L76.2652 572.322L77.7348 573.678Z" fill="#FF0066"/>
</svg>
