<svg width="42" height="42" viewBox="0 0 42 42" fill="none" xmlns="http://www.w3.org/2000/svg">
<path d="M24.4474 17.4221C24.4474 17.4221 37.015 3.49915 36.6096 2.45493C36.2042 1.41071 34.5826 0.746148 33.7718 1.44229L22.4204 14.9856C22.4204 14.9856 22.015 15.6817 21.2042 14.9856C20.3934 14.2894 11.8108 3.53075 10.1892 1.79037C8.56759 0.0499983 5.72975 1.79037 7.75678 3.87881C9.78381 5.96726 36.9459 40.0784 38.1622 40.7746C39.3784 41.4707 41 40.4265 41 39.3823C41 38.3381 32.1501 28.2124 32.1501 28.2124L29.3123 24.7316C29.3123 24.7316 24.4474 19.5105 24.4474 18.8144L24.4474 17.4221Z" stroke="white" stroke-width="1.5"/>
<path d="M32.1501 40.395C34.9973 41.0623 34.5826 39.3508 34.5826 39.3508L18.3664 19.8586L2.55553 1.06263C-5.14715 -0.329677 18.3664 21.947 16.3393 22.6432L2.55556 38.6546C2.15015 40.743 4.988 40.395 4.988 40.395L18.7718 24.7317L32.1501 40.395Z" stroke="white" stroke-width="1.5"/>
</svg>
