<svg width="52" height="60" viewBox="0 0 52 60" fill="none" xmlns="http://www.w3.org/2000/svg">
<path d="M29.9185 24.59C29.9185 24.59 45.4185 4.58997 44.9185 3.08997C44.4185 1.58997 42.4185 0.635347 41.4185 1.63534L27.4185 21.09C27.4185 21.09 26.9185 22.09 25.9185 21.09C24.9185 20.0899 14.3334 4.63536 12.3334 2.13535C10.3334 -0.364657 6.83337 2.13535 9.33337 5.13535C11.8334 8.13536 45.3334 57.1354 46.8334 58.1354C48.3334 59.1354 50.3334 57.6354 50.3334 56.1354C50.3334 54.6353 39.4185 40.09 39.4185 40.09L35.9185 35.09C35.9185 35.09 29.9185 27.59 29.9185 26.59L29.9185 24.59Z" stroke="white" stroke-width="1.5"/>
<path d="M39.4185 57.59C42.9301 58.5487 42.4186 56.09 42.4186 56.09L22.4186 28.09L2.91849 1.08996C-6.58149 -0.910053 22.4186 31.09 19.9185 32.09L2.91853 55.09C2.41852 58.09 5.91853 57.59 5.91853 57.59L22.9185 35.09L39.4185 57.59Z" stroke="white" stroke-width="1.5"/>
</svg>
