<svg width="60" height="58" viewBox="0 0 60 58" fill="none" xmlns="http://www.w3.org/2000/svg">
<path d="M58.0203 1.64C58.0203 1.64 4.02026 0.640001 2.52026 1.14C1.02026 1.64 0.520261 3.64 1.52026 4.64001L35.5203 28.64V30.14C35.5203 30.14 5.52027 51.14 3.02026 53.14C0.520253 55.14 3.02026 58.64 6.02026 56.14C9.02027 53.64 58.0203 20.14 59.0203 18.64C60.0203 17.14 58.5203 15.14 57.0203 15.14C55.5203 15.14 41.5203 26.14 40.5203 26.14C39.5203 26.14 10.0203 5.64001 11.5203 5.64H58.0203C60.0203 3.64 58.0203 1.64 58.0203 1.64Z" stroke="white"/>
</svg>
